<?xml version="1.0" encoding="iso-8859-1"?>
<!-- Generator: Adobe Illustrator 19.0.0, SVG Export Plug-In . SVG Version: 6.00 Build 0)  -->
<svg version="1.1" id="Capa_1" xmlns="http://www.w3.org/2000/svg" xmlns:xlink="http://www.w3.org/1999/xlink" x="0px" y="0px"
	 viewBox="0 0 512 512" style="enable-background:new 0 0 512 512;" xml:space="preserve">
<path style="fill:#D99E82;" d="M466,465.999c-54.797,54.797-143.626,54.797-198.422,0L47.112,245.534
	c-54.797-54.797-54.797-143.626,0-198.422s143.626-54.797,198.422,0L466,267.577C520.796,322.374,520.796,411.202,466,465.999"/>
<path style="fill:#F7BBA6;" d="M433.48,301.196c54.797,54.797,71.851,126.57,38.584,159.839
	c-33.283,33.267-105.057,16.213-159.839-38.584L91.76,201.985C36.963,147.188,19.909,75.414,53.176,42.147
	s105.042-16.213,159.839,38.584L433.48,301.196z"/>
<path style="fill:#DD2E44;" d="M493.224,427.086c22.059,22.059,25.115,54.719,6.859,72.989
	c-18.271,18.256-50.947,15.216-73.006-6.843L18.776,84.914C-3.283,62.871-6.339,30.179,11.916,11.925
	c18.256-18.271,50.946-15.2,72.989,6.843L493.224,427.086z"/>
<path style="fill:#FFCC4D;" d="M477.02,471.938c-4.342,0-8.683-1.656-11.996-4.968c-14-14-24.462-16.367-37.707-19.364
	c-14.824-3.354-33.273-7.528-54.209-28.463c-20.945-20.936-25.118-39.389-28.474-54.215c-2.996-13.246-5.365-23.71-19.37-37.716
	c-13.98-13.981-24.434-16.342-37.667-19.333c-14.823-3.349-33.27-7.517-54.202-28.451c-20.92-20.909-25.078-39.353-28.42-54.173
	c-2.983-13.226-5.337-23.672-19.299-37.632c-13.971-13.971-24.417-16.325-37.642-19.306c-14.816-3.339-33.255-7.496-54.168-28.416
	c-20.915-20.914-25.076-39.353-28.419-54.17c-2.985-13.228-5.342-23.676-19.315-37.648c-6.626-6.626-6.626-17.367,0-23.992
	s17.367-6.626,23.992,0c20.916,20.917,25.077,39.356,28.42,54.173c2.985,13.228,5.342,23.676,19.315,37.648
	c13.966,13.972,24.41,16.326,37.632,19.306c14.817,3.339,33.256,7.496,54.174,28.414c20.907,20.907,25.065,39.346,28.405,54.162
	c2.983,13.228,5.338,23.676,19.31,37.642c13.995,13.995,24.451,16.357,37.69,19.348c14.818,3.348,33.26,7.515,54.181,28.437
	c20.943,20.943,25.118,39.395,28.471,54.221c2.996,13.245,5.363,23.706,19.369,37.707c14.003,14.002,24.464,16.369,37.709,19.366
	c14.824,3.354,33.273,7.528,54.209,28.463c6.626,6.625,6.626,17.367,0.001,23.992C485.703,470.281,481.36,471.938,477.02,471.938z"
	/>
<g>
</g>
<g>
</g>
<g>
</g>
<g>
</g>
<g>
</g>
<g>
</g>
<g>
</g>
<g>
</g>
<g>
</g>
<g>
</g>
<g>
</g>
<g>
</g>
<g>
</g>
<g>
</g>
<g>
</g>
</svg>
